<svg viewBox="0 0 677 585" xmlns="http://www.w3.org/2000/svg">
<g clip-path="url(#clip0_202_1699)">
<path d="M534.605 48.3091C533.844 47.8026 533.075 47.3223 532.314 46.8333C510.32 32.7875 486.747 21.3768 462.08 12.837L456.361 91.6231H420.103V1.3361C417.82 0.864533 415.52 0.419168 413.22 0V91.6231H370.132C346.412 91.6231 323.663 82.2138 306.89 65.4652C290.117 48.7165 280.694 26.0004 280.694 2.31425V2.31416C278.386 2.81193 276.094 3.34462 273.803 3.91224V91.6231H238.708L233.26 16.496C207.911 26.2035 183.847 38.9693 161.601 54.5093C161.216 54.7713 160.831 55.042 160.455 55.304C158.523 56.6576 156.616 58.0373 154.719 59.4346V360.004H258.149L256.321 334.723L246.264 195.917H448.796L438.739 334.723L436.911 360.004H539.196V51.3481C537.675 50.3177 536.144 49.3047 534.605 48.3091ZM273.803 172.994H244.603L239.207 98.5045H273.803V172.994ZM413.22 172.994H364.177V171.518C364.177 170.809 364.037 170.106 363.765 169.451C363.493 168.796 363.094 168.2 362.591 167.699C362.088 167.198 361.491 166.8 360.835 166.53C360.178 166.259 359.474 166.12 358.764 166.122H337.443C336.733 166.121 336.03 166.261 335.374 166.532C334.718 166.803 334.122 167.2 333.62 167.702C333.118 168.203 332.72 168.798 332.449 169.453C332.177 170.108 332.038 170.81 332.038 171.518V172.994H280.694V98.5045H413.22V172.994ZM420.103 172.994V98.5045H455.862L450.467 172.994H420.103Z" fill="#F5F5F5"/>
<path d="M646.932 546.271L647.616 530.923C654.742 527.119 662.691 525.11 670.771 525.07C659.65 534.149 661.04 551.65 653.5 563.859C651.119 567.649 647.915 570.856 644.124 573.241C640.334 575.626 636.054 577.129 631.603 577.638L622.297 583.328C621.02 576.219 621.301 568.919 623.122 561.929C624.943 554.939 628.259 548.427 632.843 542.84C635.446 539.732 638.43 536.963 641.726 534.599C643.955 540.468 646.932 546.271 646.932 546.271Z" fill="#F5F5F5"/>
<path d="M147.62 529.452L125.161 522.662C122.216 510.713 122.236 498.227 125.22 486.287C134.468 506.118 160.894 510.659 176.124 526.384C180.836 531.325 184.375 537.262 186.477 543.754C188.579 550.246 189.192 557.127 188.269 563.888L193.185 579.764C182.183 578.971 171.484 575.806 161.825 570.487C152.166 565.167 143.777 557.82 137.235 548.951C133.615 543.94 130.641 538.493 128.384 532.739C137.909 531.66 147.62 529.452 147.62 529.452Z" fill="#F5F5F5"/>
<path d="M629.457 580.818C629.453 581.283 629.268 581.728 628.94 582.058C628.778 582.22 628.586 582.348 628.375 582.434C628.163 582.521 627.936 582.566 627.708 582.565H620.676C620.446 582.566 620.219 582.521 620.006 582.434C619.793 582.346 619.6 582.217 619.438 582.055C619.275 581.893 619.146 581.7 619.059 581.488C618.971 581.275 618.926 581.048 618.927 580.818V368.492C618.927 363.812 617.353 360.013 615.42 360.004H88.5255C86.5841 360.013 85.0187 363.812 85.01 368.492V579.517C85.0085 579.951 84.8458 580.369 84.5534 580.69C84.2609 581.011 83.8596 581.213 83.4271 581.255C82.0103 581.395 80.5936 581.517 79.1856 581.631C79.1506 581.631 79.1156 581.639 79.0806 581.639C78.3111 581.709 77.5415 581.761 76.7719 581.823H76.7632C76.3609 581.098 75.9761 580.356 75.5825 579.613C75.4564 579.361 75.3905 579.083 75.3901 578.801V357.48C75.3901 356.188 75.4426 354.887 75.5301 353.603C75.6548 351.84 75.8738 350.086 76.186 348.346C77.6639 340.233 81.0046 334.741 84.8001 334.723H619.137C619.691 334.727 620.238 334.843 620.746 335.064C621.492 335.393 622.166 335.865 622.731 336.452C623.498 337.248 624.154 338.144 624.682 339.116C626.553 342.408 627.891 347.316 628.363 353.027C628.363 353.079 628.372 353.132 628.372 353.184C628.495 354.599 628.556 356.04 628.547 357.48L628.669 376.195L628.748 387.355L628.984 422.373L629.072 434.808L629.457 580.818Z" fill="#D1D1D1"/>
<path d="M675.959 584.732L434.808 585C434.532 584.999 434.268 584.889 434.073 584.694C433.879 584.5 433.769 584.235 433.769 583.96C433.769 583.685 433.879 583.421 434.073 583.226C434.268 583.031 434.532 582.921 434.808 582.92L675.959 582.652C676.234 582.653 676.499 582.763 676.693 582.958C676.888 583.153 676.997 583.417 676.997 583.692C676.997 583.967 676.888 584.231 676.693 584.426C676.499 584.621 676.234 584.731 675.959 584.732Z" fill="#D1D1D1"/>
<path d="M376.632 272.687H333.921C333.317 272.688 332.738 272.929 332.311 273.356C331.884 273.783 331.645 274.362 331.646 274.965V342.338H378.913V274.965C378.913 274.666 378.854 274.37 378.739 274.093C378.625 273.817 378.457 273.566 378.245 273.354C378.033 273.143 377.782 272.975 377.505 272.86C377.228 272.746 376.931 272.687 376.632 272.687ZM355.42 310.968C354.084 310.961 352.805 310.429 351.861 309.486C350.916 308.543 350.383 307.265 350.377 305.931V298.161C350.377 296.825 350.908 295.544 351.854 294.6C352.8 293.655 354.082 293.125 355.42 293.125C356.758 293.125 358.04 293.655 358.986 294.6C359.932 295.544 360.463 296.825 360.463 298.161V305.931C360.457 307.265 359.924 308.543 358.979 309.486C358.035 310.429 356.756 310.961 355.42 310.968Z" fill="#2F2E41"/>
<path d="M447.356 167.545H264.786C263.217 167.547 261.714 168.171 260.605 169.278C259.495 170.386 258.871 171.887 258.869 173.454V296.475C258.87 298.042 259.494 299.544 260.603 300.651C261.713 301.759 263.217 302.382 264.786 302.384H447.356C448.925 302.382 450.429 301.759 451.539 300.651C452.648 299.544 453.272 298.042 453.273 296.475V173.454C453.271 171.887 452.647 170.386 451.537 169.278C450.428 168.171 448.925 167.547 447.356 167.545Z" fill="#3F3D56"/>
<path d="M445.829 171.812H266.308C265.468 171.813 264.663 172.148 264.07 172.741C263.477 173.335 263.144 174.139 263.144 174.978V294.95C263.145 295.788 263.479 296.591 264.072 297.183C264.665 297.775 265.469 298.109 266.308 298.11H445.829C446.668 298.109 447.472 297.775 448.065 297.183C448.658 296.591 448.992 295.788 448.994 294.95V174.978C448.994 174.139 448.66 173.335 448.067 172.741C447.474 172.148 446.669 171.813 445.829 171.812Z" fill="white"/>
<path d="M331.499 340.183V346.683C331.5 347.02 331.634 347.342 331.873 347.581C332.111 347.819 332.435 347.953 332.772 347.954H377.787C378.124 347.952 378.447 347.817 378.685 347.58C378.923 347.342 379.058 347.019 379.06 346.683V340.183H331.499Z" fill="#3F3D56"/>
<path d="M410.864 350.216H304.059C303.767 350.216 303.478 350.15 303.214 350.025C302.95 349.899 302.718 349.716 302.534 349.49C302.349 349.263 302.218 348.998 302.149 348.714C302.081 348.431 302.076 348.135 302.137 347.849L303.794 339.99C303.888 339.55 304.13 339.156 304.48 338.872C304.83 338.589 305.266 338.434 305.716 338.432H409.208C409.658 338.434 410.094 338.589 410.444 338.872C410.793 339.156 411.036 339.55 411.13 339.99L412.787 347.849C412.847 348.135 412.843 348.431 412.774 348.714C412.706 348.998 412.574 349.263 412.39 349.49C412.206 349.716 411.973 349.899 411.709 350.025C411.445 350.15 411.157 350.216 410.864 350.216Z" fill="#2F2E41"/>
<path d="M309.337 339.847H306.902C306.666 339.847 306.475 340.038 306.475 340.274V341.392C306.475 341.627 306.666 341.818 306.902 341.818H309.337C309.573 341.818 309.764 341.627 309.764 341.392V340.274C309.764 340.038 309.573 339.847 309.337 339.847Z" fill="#3F3D56"/>
<path d="M315.916 339.847H313.481C313.245 339.847 313.054 340.038 313.054 340.274V341.392C313.054 341.627 313.245 341.818 313.481 341.818H315.916C316.152 341.818 316.343 341.627 316.343 341.392V340.274C316.343 340.038 316.152 339.847 315.916 339.847Z" fill="#3F3D56"/>
<path d="M322.495 339.847H320.06C319.824 339.847 319.633 340.038 319.633 340.274V341.392C319.633 341.627 319.824 341.818 320.06 341.818H322.495C322.731 341.818 322.922 341.627 322.922 341.392V340.274C322.922 340.038 322.731 339.847 322.495 339.847Z" fill="#3F3D56"/>
<path d="M329.074 339.847H326.639C326.403 339.847 326.212 340.038 326.212 340.274V341.392C326.212 341.627 326.403 341.818 326.639 341.818H329.074C329.31 341.818 329.501 341.627 329.501 341.392V340.274C329.501 340.038 329.31 339.847 329.074 339.847Z" fill="#3F3D56"/>
<path d="M335.653 339.847H333.218C332.982 339.847 332.791 340.038 332.791 340.274V341.392C332.791 341.627 332.982 341.818 333.218 341.818H335.653C335.889 341.818 336.08 341.627 336.08 341.392V340.274C336.08 340.038 335.889 339.847 335.653 339.847Z" fill="#3F3D56"/>
<path d="M342.232 339.847H339.797C339.561 339.847 339.37 340.038 339.37 340.274V341.392C339.37 341.627 339.561 341.818 339.797 341.818H342.232C342.468 341.818 342.659 341.627 342.659 341.392V340.274C342.659 340.038 342.468 339.847 342.232 339.847Z" fill="#3F3D56"/>
<path d="M348.811 339.847H346.376C346.14 339.847 345.949 340.038 345.949 340.274V341.392C345.949 341.627 346.14 341.818 346.376 341.818H348.811C349.047 341.818 349.238 341.627 349.238 341.392V340.274C349.238 340.038 349.047 339.847 348.811 339.847Z" fill="#3F3D56"/>
<path d="M355.39 339.847H352.955C352.719 339.847 352.528 340.038 352.528 340.274V341.392C352.528 341.627 352.719 341.818 352.955 341.818H355.39C355.626 341.818 355.817 341.627 355.817 341.392V340.274C355.817 340.038 355.626 339.847 355.39 339.847Z" fill="#3F3D56"/>
<path d="M361.969 339.847H359.534C359.298 339.847 359.107 340.038 359.107 340.274V341.392C359.107 341.627 359.298 341.818 359.534 341.818H361.969C362.205 341.818 362.396 341.627 362.396 341.392V340.274C362.396 340.038 362.205 339.847 361.969 339.847Z" fill="#3F3D56"/>
<path d="M368.548 339.847H366.112C365.877 339.847 365.686 340.038 365.686 340.274V341.392C365.686 341.627 365.877 341.818 366.112 341.818H368.548C368.784 341.818 368.975 341.627 368.975 341.392V340.274C368.975 340.038 368.784 339.847 368.548 339.847Z" fill="#3F3D56"/>
<path d="M375.127 339.847H372.692C372.456 339.847 372.265 340.038 372.265 340.274V341.392C372.265 341.627 372.456 341.818 372.692 341.818H375.127C375.363 341.818 375.554 341.627 375.554 341.392V340.274C375.554 340.038 375.363 339.847 375.127 339.847Z" fill="#3F3D56"/>
<path d="M381.706 339.847H379.271C379.035 339.847 378.844 340.038 378.844 340.274V341.392C378.844 341.627 379.035 341.818 379.271 341.818H381.706C381.942 341.818 382.133 341.627 382.133 341.392V340.274C382.133 340.038 381.942 339.847 381.706 339.847Z" fill="#3F3D56"/>
<path d="M388.285 339.847H385.85C385.614 339.847 385.423 340.038 385.423 340.274V341.392C385.423 341.627 385.614 341.818 385.85 341.818H388.285C388.521 341.818 388.712 341.627 388.712 341.392V340.274C388.712 340.038 388.521 339.847 388.285 339.847Z" fill="#3F3D56"/>
<path d="M394.864 339.847H392.429C392.193 339.847 392.002 340.038 392.002 340.274V341.392C392.002 341.627 392.193 341.818 392.429 341.818H394.864C395.1 341.818 395.291 341.627 395.291 341.392V340.274C395.291 340.038 395.1 339.847 394.864 339.847Z" fill="#3F3D56"/>
<path d="M401.443 339.847H399.008C398.772 339.847 398.581 340.038 398.581 340.274V341.392C398.581 341.627 398.772 341.818 399.008 341.818H401.443C401.679 341.818 401.87 341.627 401.87 341.392V340.274C401.87 340.038 401.679 339.847 401.443 339.847Z" fill="#3F3D56"/>
<path d="M408.022 339.847H405.587C405.351 339.847 405.16 340.038 405.16 340.274V341.392C405.16 341.627 405.351 341.818 405.587 341.818H408.022C408.258 341.818 408.449 341.627 408.449 341.392V340.274C408.449 340.038 408.258 339.847 408.022 339.847Z" fill="#3F3D56"/>
<path d="M309.26 343.132H306.824C306.588 343.132 306.397 343.323 306.397 343.558V344.677C306.397 344.912 306.588 345.103 306.824 345.103H309.26C309.495 345.103 309.686 344.912 309.686 344.677V343.558C309.686 343.323 309.495 343.132 309.26 343.132Z" fill="#3F3D56"/>
<path d="M315.839 343.132H313.403C313.167 343.132 312.976 343.323 312.976 343.558V344.677C312.976 344.912 313.167 345.103 313.403 345.103H315.839C316.074 345.103 316.266 344.912 316.266 344.677V343.558C316.266 343.323 316.074 343.132 315.839 343.132Z" fill="#3F3D56"/>
<path d="M322.418 343.132H319.982C319.746 343.132 319.555 343.323 319.555 343.558V344.677C319.555 344.912 319.746 345.103 319.982 345.103H322.418C322.653 345.103 322.844 344.912 322.844 344.677V343.558C322.844 343.323 322.653 343.132 322.418 343.132Z" fill="#3F3D56"/>
<path d="M328.997 343.132H326.561C326.325 343.132 326.134 343.323 326.134 343.558V344.677C326.134 344.912 326.325 345.103 326.561 345.103H328.997C329.232 345.103 329.424 344.912 329.424 344.677V343.558C329.424 343.323 329.232 343.132 328.997 343.132Z" fill="#3F3D56"/>
<path d="M335.575 343.132H333.14C332.904 343.132 332.713 343.323 332.713 343.558V344.677C332.713 344.912 332.904 345.103 333.14 345.103H335.575C335.811 345.103 336.002 344.912 336.002 344.677V343.558C336.002 343.323 335.811 343.132 335.575 343.132Z" fill="#3F3D56"/>
<path d="M342.155 343.132H339.719C339.483 343.132 339.292 343.323 339.292 343.558V344.677C339.292 344.912 339.483 345.103 339.719 345.103H342.155C342.39 345.103 342.581 344.912 342.581 344.677V343.558C342.581 343.323 342.39 343.132 342.155 343.132Z" fill="#3F3D56"/>
<path d="M348.734 343.132H346.298C346.062 343.132 345.871 343.323 345.871 343.558V344.677C345.871 344.912 346.062 345.103 346.298 345.103H348.734C348.969 345.103 349.161 344.912 349.161 344.677V343.558C349.161 343.323 348.969 343.132 348.734 343.132Z" fill="#3F3D56"/>
<path d="M355.313 343.132H352.877C352.641 343.132 352.45 343.323 352.45 343.558V344.677C352.45 344.912 352.641 345.103 352.877 345.103H355.313C355.548 345.103 355.739 344.912 355.739 344.677V343.558C355.739 343.323 355.548 343.132 355.313 343.132Z" fill="#3F3D56"/>
<path d="M361.892 343.132H359.456C359.22 343.132 359.029 343.323 359.029 343.558V344.677C359.029 344.912 359.22 345.103 359.456 345.103H361.892C362.127 345.103 362.319 344.912 362.319 344.677V343.558C362.319 343.323 362.127 343.132 361.892 343.132Z" fill="#3F3D56"/>
<path d="M368.47 343.132H366.035C365.799 343.132 365.608 343.323 365.608 343.558V344.677C365.608 344.912 365.799 345.103 366.035 345.103H368.47C368.706 345.103 368.897 344.912 368.897 344.677V343.558C368.897 343.323 368.706 343.132 368.47 343.132Z" fill="#3F3D56"/>
<path d="M375.05 343.132H372.614C372.378 343.132 372.187 343.323 372.187 343.558V344.677C372.187 344.912 372.378 345.103 372.614 345.103H375.05C375.285 345.103 375.477 344.912 375.477 344.677V343.558C375.477 343.323 375.285 343.132 375.05 343.132Z" fill="#3F3D56"/>
<path d="M381.628 343.132H379.193C378.957 343.132 378.766 343.323 378.766 343.558V344.677C378.766 344.912 378.957 345.103 379.193 345.103H381.628C381.864 345.103 382.055 344.912 382.055 344.677V343.558C382.055 343.323 381.864 343.132 381.628 343.132Z" fill="#3F3D56"/>
<path d="M388.208 343.132H385.772C385.536 343.132 385.345 343.323 385.345 343.558V344.677C385.345 344.912 385.536 345.103 385.772 345.103H388.208C388.443 345.103 388.634 344.912 388.634 344.677V343.558C388.634 343.323 388.443 343.132 388.208 343.132Z" fill="#3F3D56"/>
<path d="M394.786 343.132H392.351C392.115 343.132 391.924 343.323 391.924 343.558V344.677C391.924 344.912 392.115 345.103 392.351 345.103H394.786C395.022 345.103 395.213 344.912 395.213 344.677V343.558C395.213 343.323 395.022 343.132 394.786 343.132Z" fill="#3F3D56"/>
<path d="M401.365 343.132H398.93C398.694 343.132 398.503 343.323 398.503 343.558V344.677C398.503 344.912 398.694 345.103 398.93 345.103H401.365C401.601 345.103 401.792 344.912 401.792 344.677V343.558C401.792 343.323 401.601 343.132 401.365 343.132Z" fill="#3F3D56"/>
<path d="M407.945 343.132H405.509C405.273 343.132 405.082 343.323 405.082 343.558V344.677C405.082 344.912 405.273 345.103 405.509 345.103H407.945C408.18 345.103 408.372 344.912 408.372 344.677V343.558C408.372 343.323 408.18 343.132 407.945 343.132Z" fill="#3F3D56"/>
<path d="M363.865 347.074H338.403C338.167 347.074 337.976 347.265 337.976 347.5V348.618C337.976 348.854 338.167 349.045 338.403 349.045H363.865C364.101 349.045 364.292 348.854 364.292 348.618V347.5C364.292 347.265 364.101 347.074 363.865 347.074Z" fill="#3F3D56"/>
<path d="M436.808 188.342H268.831C268.656 188.338 268.49 188.267 268.368 188.142C268.245 188.017 268.177 187.85 268.177 187.675C268.177 187.501 268.245 187.333 268.368 187.208C268.49 187.084 268.656 187.012 268.831 187.008H436.808C436.983 187.012 437.149 187.084 437.272 187.208C437.394 187.333 437.462 187.501 437.462 187.675C437.462 187.85 437.394 188.017 437.272 188.142C437.149 188.267 436.983 188.338 436.808 188.342Z" fill="#D1D1D1"/>
<path d="M280.265 183.602C282.427 183.602 284.18 181.813 284.18 179.606C284.18 177.399 282.427 175.61 280.265 175.61C278.103 175.61 276.351 177.399 276.351 179.606C276.351 181.813 278.103 183.602 280.265 183.602Z" fill="#3F3D56"/>
<path d="M293.789 183.602C295.951 183.602 297.704 181.813 297.704 179.606C297.704 177.399 295.951 175.61 293.789 175.61C291.627 175.61 289.874 177.399 289.874 179.606C289.874 181.813 291.627 183.602 293.789 183.602Z" fill="#3F3D56"/>
<path d="M307.313 183.602C309.475 183.602 311.228 181.813 311.228 179.606C311.228 177.399 309.475 175.61 307.313 175.61C305.151 175.61 303.398 177.399 303.398 179.606C303.398 181.813 305.151 183.602 307.313 183.602Z" fill="#3F3D56"/>
<path d="M428.666 176.6H419.059C418.869 176.604 418.687 176.682 418.554 176.818C418.421 176.954 418.346 177.136 418.346 177.327C418.346 177.517 418.421 177.699 418.554 177.835C418.687 177.971 418.869 178.049 419.059 178.053H428.666C428.856 178.049 429.037 177.971 429.171 177.835C429.304 177.699 429.379 177.517 429.379 177.327C429.379 177.136 429.304 176.954 429.171 176.818C429.037 176.682 428.856 176.604 428.666 176.6Z" fill="#3F3D56"/>
<path d="M428.666 179.327H419.059C418.869 179.331 418.687 179.409 418.554 179.545C418.421 179.68 418.346 179.863 418.346 180.053C418.346 180.243 418.421 180.426 418.554 180.562C418.687 180.697 418.869 180.776 419.059 180.779H428.666C428.856 180.776 429.037 180.697 429.171 180.562C429.304 180.426 429.379 180.243 429.379 180.053C429.379 179.863 429.304 179.68 429.171 179.545C429.037 179.409 428.856 179.331 428.666 179.327Z" fill="#3F3D56"/>
<path d="M428.666 182.05H419.059C418.869 182.053 418.687 182.132 418.554 182.267C418.421 182.403 418.346 182.586 418.346 182.776C418.346 182.966 418.421 183.149 418.554 183.285C418.687 183.42 418.869 183.499 419.059 183.502H428.666C428.856 183.499 429.037 183.42 429.171 183.285C429.304 183.149 429.379 182.966 429.379 182.776C429.379 182.586 429.304 182.403 429.171 182.267C429.037 182.132 428.856 182.053 428.666 182.05Z" fill="#3F3D56"/>
<path d="M366.238 227.311H345.248C343.672 227.311 342.394 228.587 342.394 230.162V230.162C342.394 231.736 343.672 233.012 345.248 233.012H366.238C367.814 233.012 369.092 231.736 369.092 230.162V230.162C369.092 228.587 367.814 227.311 366.238 227.311Z" fill="#F2A921"/>
<path d="M379.797 238.713H331.689C330.112 238.713 328.834 239.989 328.834 241.563V241.564C328.834 243.138 330.112 244.414 331.689 244.414H379.797C381.374 244.414 382.652 243.138 382.652 241.563C382.652 239.989 381.374 238.713 379.797 238.713Z" fill="#D1D1D1"/>
<path d="M379.797 250.115H331.689C330.112 250.115 328.834 251.391 328.834 252.965C328.834 254.54 330.112 255.816 331.689 255.816H379.797C381.374 255.816 382.652 254.54 382.652 252.965C382.652 251.391 381.374 250.115 379.797 250.115Z" fill="#D1D1D1"/>
<path d="M270.471 358.79H217.999C216.144 358.79 214.364 359.526 213.052 360.836C211.74 362.147 211.003 363.924 211.003 365.776C211.003 367.629 211.74 369.406 213.052 370.716C214.364 372.026 216.144 372.763 217.999 372.763H237.239V426.905H251.231V372.763H270.471C272.327 372.763 274.106 372.026 275.418 370.716C276.73 369.406 277.467 367.629 277.467 365.776C277.467 363.924 276.73 362.147 275.418 360.836C274.106 359.526 272.327 358.79 270.471 358.79Z" fill="#3F3D56"/>
<path d="M305.103 456.891H164.756C151.151 456.841 138.017 451.905 127.754 442.985C117.491 434.065 110.785 421.755 108.86 408.306L103.892 390.058C93.6091 352.245 77.9466 316.101 57.3831 282.731C47.9842 267.489 43.1467 252.735 54.1343 238.53C54.2279 238.409 54.3199 238.29 54.4104 238.173C63.2231 226.719 107.087 224.239 121.387 223.757C121.951 223.738 122.519 223.728 123.088 223.728H210.382C210.952 223.728 211.519 223.738 212.083 223.757C219.792 223.981 227.296 226.285 233.799 230.424C240.302 234.563 245.562 240.383 249.02 247.266C252.71 254.293 254.426 262.187 253.987 270.11C253.547 278.032 250.968 285.688 246.522 292.265C215.858 338.261 206.47 367.102 216.082 385.779C225.379 403.845 253.879 413.081 305.772 414.846C319.717 415.32 326.118 426.163 326.162 436.037C326.206 445.656 320.053 456.276 306.439 456.862C305.997 456.881 305.552 456.891 305.103 456.891Z" fill="#3F3D56"/>
<path d="M188.599 581.331H241.07C242.926 581.331 244.705 580.595 246.017 579.285C247.329 577.974 248.066 576.197 248.066 574.345C248.066 572.492 247.329 570.715 246.017 569.405C244.705 568.095 242.926 567.359 241.07 567.359H221.831V449.468H207.838V567.359H188.599C186.743 567.359 184.963 568.095 183.651 569.405C182.339 570.715 181.602 572.492 181.602 574.345C181.602 576.197 182.339 577.974 183.651 579.285C184.963 580.595 186.743 581.331 188.599 581.331Z" fill="#3F3D56"/>
<path d="M184.408 228.104L185.508 234.778C186.028 238.015 187.912 260.877 186.516 263.604C186.393 258.512 176.897 250.505 170.743 252.333L161.086 254.476L155.093 255.807L150.215 256.875L136.039 259.968C136.015 259.804 135.997 259.629 135.972 259.465C135.938 259.258 135.905 259.051 135.863 258.845C135.599 257.518 135.118 256.243 134.438 255.072C134.366 256.64 133.902 258.166 133.089 259.51C133.067 259.545 133.048 259.582 133.031 259.62C132.779 260.027 132.502 260.417 132.199 260.788C132.185 260.798 132.173 260.809 132.162 260.823C132.162 260.823 129.249 214.461 129.554 214.033C129.778 213.729 130.003 213.433 130.238 213.145C130.472 212.847 130.699 212.56 130.943 212.27C130.974 212.242 131 212.21 131.021 212.173C131.704 211.366 132.428 210.593 133.189 209.859C133.413 209.644 133.645 209.427 133.877 209.21C137.424 205.933 141.661 203.493 146.277 202.068C146.797 201.908 147.339 201.762 147.889 201.614C148.432 201.476 148.985 201.345 149.542 201.232L149.73 201.193C149.996 201.139 150.272 201.091 150.539 201.046C150.875 200.986 151.213 200.935 151.544 200.894C155.838 200.276 160.214 200.522 164.412 201.616C164.42 201.614 164.422 201.623 164.431 201.621C167.935 202.536 171.266 204.017 174.292 206.006C179.524 209.456 181.561 215.083 183.008 221.402C183.515 223.571 183.941 225.828 184.408 228.104Z" fill="#2F2E41"/>
<path d="M236.09 533.803L245.129 538.706L269.058 505.669L255.716 498.433L236.09 533.803Z" fill="#FFB6B6"/>
<path d="M240.441 522.031L256.851 527.162L254.239 534.027L265.492 550.335C266.047 551.14 266.331 552.102 266.301 553.079C266.27 554.057 265.928 554.999 265.323 555.769C264.719 556.539 263.884 557.095 262.94 557.357C261.996 557.619 260.993 557.573 260.077 557.225L240.974 549.978L240.265 541.939L236.396 548.241L229.193 545.509L240.441 522.031Z" fill="#2F2E41"/>
<path d="M287.291 386.036C285.848 386.387 284.346 386.418 282.89 386.126C281.434 385.834 280.06 385.228 278.864 384.348C277.669 383.469 276.681 382.338 275.97 381.037C275.259 379.735 274.843 378.293 274.751 376.813L197.651 349.116L211.8 336.821L284.979 365.916C287.479 365.925 289.889 366.85 291.751 368.516C293.614 370.181 294.8 372.47 295.085 374.951C295.37 377.431 294.734 379.929 293.297 381.972C291.861 384.015 289.724 385.461 287.291 386.036Z" fill="#FFB6B6"/>
<path d="M176.113 280.501C176.113 280.501 163.127 280.787 161.973 295.591C160.818 310.394 189.152 347.01 193.542 353.048C197.932 359.087 246.693 366.519 246.693 366.519L263.269 354.503C245.852 343.233 229.956 334.592 219.289 334.981L176.113 280.501Z" fill="#F2A921"/>
<path d="M160.187 345.82L163.351 359.396C163.351 359.396 163.382 371.914 165.602 374.222C167.807 376.519 216.286 371.906 216.286 371.906C216.286 371.906 211.146 351.734 211.214 336.471L160.187 345.82Z" fill="#FFB6B6"/>
<path d="M262.601 519.471L245.11 509.865C244.777 487.139 258.467 456.384 274.704 424.17C238.391 430.406 204.133 432.404 174.501 424.86C169.636 423.577 165.472 420.434 162.909 416.111C160.346 411.788 159.59 406.631 160.803 401.755C160.919 401.276 161.052 400.803 161.203 400.334C164.75 389.53 156.798 382.757 164.112 370.874C183.348 364.313 201.622 362.461 218.332 368.254L228.803 391.37L280.699 384.664C283.207 384.365 285.749 384.564 288.178 385.25C290.608 385.937 292.878 387.096 294.857 388.662C296.836 390.229 298.485 392.17 299.709 394.376C300.933 396.581 301.708 399.007 301.989 401.513C302.058 402.075 302.104 402.64 302.125 403.207C291.632 452.331 279.865 496.532 262.601 519.471Z" fill="#2F2E41"/>
<path d="M162.59 252.007C174.327 249.609 181.896 238.163 179.494 226.443C177.092 214.722 165.63 207.165 153.893 209.563C142.155 211.962 134.587 223.407 136.989 235.128C139.391 246.848 150.853 254.405 162.59 252.007Z" fill="#FFB6B6"/>
<path d="M153.142 259.87L173.135 258.691C173.978 258.642 174.816 258.856 175.531 259.304C176.246 259.752 176.804 260.412 177.126 261.192L182.776 274.868L206.257 294.248C206.257 294.248 215.554 306.062 215.576 321.319C215.597 336.576 218.874 371.889 218.874 371.889C218.874 371.889 205.306 352.818 196.931 357.891C195.506 358.754 195.005 360.518 193.513 361.41C192.768 361.855 191.048 361.423 190.297 361.868C178.757 368.709 166.721 375.392 165.597 374.22C163.389 371.919 160.711 360.163 160.711 360.163L142.41 293.02C141.418 289.487 141.221 285.779 141.833 282.161C142.445 278.543 143.852 275.106 145.951 272.095C147.23 270.297 148.569 268.96 149.814 268.739C152.609 268.144 151.123 261.889 153.142 259.87Z" fill="#F2A921"/>
<path d="M323.211 562.244L331.65 556.385L312.532 520.368L300.077 529.015L323.211 562.244Z" fill="#FFB6B6"/>
<path d="M324.486 538.077L311.261 549.882C290.23 526.483 274.332 493.665 260.858 456.397C225.557 446.073 198.936 429.423 175.695 409.654C167.811 402.992 161.901 394.434 168.625 386.319C168.939 385.94 169.268 385.573 169.61 385.219C177.549 377.071 197.683 378.624 209.475 371.159L235.817 399.275L234.16 406.813L283.638 423.549C286.019 424.382 288.211 425.678 290.088 427.361C291.964 429.044 293.489 431.082 294.573 433.357C295.657 435.631 296.28 438.097 296.404 440.613C296.529 443.129 296.154 445.645 295.3 448.015C295.115 448.551 294.907 449.079 294.676 449.597L324.486 538.077Z" fill="#2F2E41"/>
<path d="M318.291 559.869L331.8 549.245L335.997 555.275L355.83 555.215C356.81 555.212 357.764 555.522 358.555 556.099C359.346 556.676 359.931 557.49 360.226 558.423C360.52 559.356 360.508 560.359 360.192 561.284C359.875 562.21 359.271 563.01 358.466 563.569L341.687 575.216L334.643 571.259L337.665 578.007L331.339 582.399L318.291 559.869Z" fill="#2F2E41"/>
<path d="M182.665 429.082C181.298 428.503 180.075 427.631 179.082 426.529C178.089 425.426 177.35 424.12 176.917 422.702C176.484 421.283 176.368 419.787 176.577 418.319C176.786 416.851 177.314 415.447 178.126 414.205L132.865 346.001L151.568 344.582L192.848 411.567C194.847 413.066 196.226 415.245 196.723 417.692C197.221 420.138 196.802 422.682 195.547 424.841C194.292 427 192.287 428.624 189.913 429.406C187.539 430.187 184.96 430.072 182.665 429.082Z" fill="#FFB6B6"/>
<path d="M156.641 278.127C156.641 278.127 146.057 270.61 136.275 281.793C126.493 292.976 127.309 339.242 127.217 346.704C127.189 349.04 130.567 354.081 135.222 359.904C137.312 362.519 139.659 365.29 142.07 368.046C143.466 369.64 142.263 372.959 143.665 374.509C145.058 376.05 149.055 375.823 150.381 377.253C156.672 384.043 161.783 389.212 161.783 389.212L182.265 389.464C182.496 374.26 172.069 360.689 158.674 347.573L156.641 278.127Z" fill="#F2A921"/>
<path d="M185.354 220.263C184.551 220.659 183.773 221.041 183.008 221.402C179.938 222.909 176.766 224.197 173.515 225.258C172.973 223.789 172.148 222.44 171.086 221.289C171.357 222.878 171.219 224.511 170.683 226.033C165.762 227.25 160.596 227.051 155.783 225.458C158.93 231.278 161.256 243.54 161.086 254.476C161.013 260.258 160.229 265.668 158.517 269.557L156.318 262.875C156.114 260.488 155.704 258.124 155.093 255.807C153.618 249.308 152.241 253.654 150.215 256.876L136.039 259.968C136.015 259.804 135.997 259.629 135.972 259.465C135.938 259.258 135.905 259.051 135.863 258.845C135.599 257.518 135.118 256.243 134.438 255.072C134.366 256.64 133.902 258.166 133.089 259.51C133.067 259.545 133.048 259.582 133.031 259.62C132.78 260.027 132.502 260.417 132.2 260.788C132.185 260.798 132.173 260.81 132.162 260.823C123.01 262.046 116.594 214.919 129.556 214.042C129.933 214.016 130.005 213.442 130.238 213.145C130.472 212.847 130.699 212.56 130.943 212.27C130.974 212.242 131 212.21 131.021 212.174C131.714 211.372 132.431 210.602 133.189 209.859C133.413 209.644 133.645 209.427 133.877 209.21C137.435 205.949 141.669 203.514 146.278 202.077C146.799 201.917 147.339 201.762 147.889 201.614C148.432 201.476 148.985 201.345 149.542 201.232L149.73 201.193C149.996 201.139 150.272 201.091 150.539 201.046C150.875 200.986 151.213 200.935 151.544 200.894C152.786 201.519 153.849 202.449 154.633 203.596L163.689 201.746C163.929 201.697 164.17 201.657 164.414 201.625L164.431 201.621C175.737 199.73 183.007 208.807 185.354 220.263Z" fill="#2F2E41"/>
<path d="M135.996 211.931C134.057 213.328 132.017 214.768 129.651 215.115C127.285 215.461 124.515 214.319 123.86 212.022C123.059 209.214 125.599 206.657 127.881 204.832L135.119 199.045C136.444 197.871 137.94 196.905 139.556 196.18C140.368 195.823 141.249 195.653 142.135 195.683C143.022 195.713 143.89 195.941 144.676 196.351C145.454 196.875 146.084 197.59 146.507 198.427C146.93 199.263 147.131 200.194 147.092 201.131C146.989 203.007 146.369 204.819 145.3 206.367C143.956 208.458 142.203 210.256 140.145 211.652C138.087 213.049 135.768 214.016 133.326 214.494" fill="#2F2E41"/>
<path d="M190.889 362.283H138.417C136.562 362.283 134.782 363.019 133.47 364.33C132.158 365.64 131.421 367.417 131.421 369.27C131.421 371.122 132.158 372.899 133.47 374.209C134.782 375.52 136.562 376.256 138.417 376.256H157.657V430.398H171.649V376.256H190.889C192.745 376.256 194.524 375.52 195.836 374.209C197.148 372.899 197.885 371.122 197.885 369.27C197.885 367.417 197.148 365.64 195.836 364.33C194.524 363.019 192.745 362.283 190.889 362.283Z" fill="#3F3D56"/>
<path d="M384.741 583.858L1.04121 584.127C0.765562 584.126 0.501486 584.016 0.306858 583.821C0.11223 583.626 0.00292969 583.362 0.00292969 583.087C0.00292969 582.812 0.11223 582.548 0.306858 582.353C0.501486 582.158 0.765562 582.048 1.04121 582.047L384.741 581.779C385.016 581.78 385.28 581.889 385.475 582.084C385.67 582.279 385.779 582.543 385.779 582.819C385.779 583.094 385.67 583.358 385.475 583.553C385.28 583.748 385.016 583.858 384.741 583.858Z" fill="#D1D1D1"/>
<path d="M496.401 467.875L504.942 477.17L544.912 448.695L532.305 434.976L496.401 467.875Z" fill="#FFB6B6"/>
<path d="M514.08 481.03V481.021L513.214 471.739L512.821 471.555L510.52 470.464L499.668 465.338L499.44 465.093L497.263 462.718L485.203 473.773L501.539 491.553L512.742 503.744L513.118 503.395C514.653 501.99 515.896 500.297 516.775 498.412C517.655 496.528 518.153 494.489 518.242 492.412C518.332 490.334 518.01 488.26 517.296 486.307C516.582 484.354 515.489 482.561 514.08 481.03H514.08Z" fill="#2F2E41"/>
<path d="M452.147 560.602L464.235 564.269L484.151 519.455L466.31 514.043L452.147 560.602Z" fill="#FFB6B6"/>
<path d="M483.445 570.636C482.471 568.798 481.14 567.173 479.531 565.853C477.921 564.534 476.065 563.547 474.07 562.951L468.587 555.397L468.158 555.432L453.667 556.76L453.344 556.664L450.265 555.729L445.508 571.369L484.486 583.193L484.634 582.696C485.243 580.707 485.451 578.617 485.246 576.547C485.042 574.477 484.43 572.468 483.445 570.636Z" fill="#2F2E41"/>
<path d="M551.825 325.962C551.825 325.962 629.004 400.371 580.213 423.403H565.133C565.133 423.403 560.601 407.326 550.226 393.768C548.801 391.906 543.463 392.285 541.981 390.47C532.93 379.391 523.118 369.876 516.342 370.254L517.963 421.666L520.586 440.004C521.964 449.484 483.085 532.259 483.085 532.259L458.647 522.668C458.647 522.668 484.108 454.491 484.406 444.662L464.003 336.592L551.825 325.962Z" fill="#2F2E41"/>
<path d="M558.261 329.632C557.868 330.192 557.354 330.658 556.757 330.994C555.773 331.549 554.708 331.944 553.6 332.164C536.223 336.103 479.457 344.268 464.721 340.373C462.911 339.901 461.731 339.238 461.346 338.365C460.113 335.605 460.27 323.947 460.996 309.87C461.127 307.233 464.039 304.377 464.214 301.617C464.337 299.548 461.722 297.6 461.862 295.496C462.824 281.262 464.066 266.757 464.896 257.587C465.421 251.693 465.78 248.008 465.78 248.008L456.816 191.568L457.235 190.879L457.708 190.643L486.611 176.356L488.185 172.339C488.641 171.183 489.434 170.189 490.461 169.487C491.489 168.785 492.703 168.407 493.948 168.401L512.987 168.322C513.974 168.317 514.949 168.547 515.83 168.993C516.711 169.44 517.472 170.09 518.05 170.889L523.21 178.024L557.316 199.856L557.185 200.257L541.181 248.89L541.103 252.68V252.688L540.508 283.165L542.161 287.296L540.298 294.072C540.298 294.072 541.155 301.993 545.746 307.879C549.909 313.223 555.209 318.795 557.605 323.318V323.327C558.934 325.824 559.38 327.99 558.261 329.632Z" fill="#F2A921"/>
<path d="M583.918 418.983L579.793 424.188C579.793 424.188 541.853 450.693 540.55 453.17L534.554 458.835L520.046 443.349L527.591 433.907C533.629 426.35 541.43 420.386 550.311 416.538L561.873 406.294L583.918 418.983Z" fill="#2F2E41"/>
<path d="M559.811 344.591L552.902 277.813L551.078 250.328L570.417 246.837C570.417 246.837 569.65 266.489 572.184 277.577C574.684 288.518 572.515 343.125 572.361 344.585C573.781 345.854 574.782 347.522 575.232 349.371C575.682 351.22 575.559 353.161 574.879 354.939C574.2 356.716 572.997 358.246 571.428 359.325C569.859 360.404 567.999 360.983 566.094 360.984C564.189 360.985 562.328 360.408 560.758 359.33C559.188 358.252 557.983 356.724 557.302 354.947C556.621 353.17 556.496 351.229 556.944 349.38C557.392 347.531 558.392 345.861 559.811 344.591Z" fill="#FFB6B6"/>
<path d="M578.675 291.651L553.818 296.788L551.645 288.136L549.111 285.452L544.049 258.972L536.786 243.46L538.674 190.415L557.121 200.184L557.143 200.201C559.965 203.26 561.909 207.637 565.143 212.029C575.331 225.869 576.461 259.5 576.153 277.921C576.148 278.223 576.452 278.542 576.818 278.878C578.553 280.468 579.685 282.608 580.023 284.935C580.361 287.262 579.885 289.634 578.675 291.651V291.651Z" fill="#F2A921"/>
<path d="M447.255 347.211L454.164 280.432L455.988 252.948L436.65 249.457C436.65 249.457 437.416 269.108 434.883 280.196C432.383 291.138 434.551 345.745 434.705 347.205C433.285 348.473 432.284 350.142 431.834 351.991C431.385 353.839 431.507 355.781 432.187 357.558C432.866 359.336 434.07 360.865 435.638 361.945C437.207 363.024 439.067 363.603 440.972 363.604C442.878 363.604 444.738 363.028 446.308 361.95C447.878 360.872 449.083 359.343 449.764 357.567C450.445 355.79 450.57 353.849 450.122 352C449.674 350.15 448.674 348.481 447.255 347.211Z" fill="#FFB6B6"/>
<path d="M470.283 246.078L464.896 257.587L463.016 261.596L457.952 288.073L455.425 290.754L453.248 299.408L452.224 299.199L433.772 295.382L428.393 294.273C427.181 292.256 426.704 289.884 427.041 287.556C427.379 285.228 428.512 283.088 430.247 281.497C430.615 281.166 430.921 280.843 430.912 280.537C430.606 262.12 431.734 228.49 441.922 214.649C445.158 210.256 447.1 205.881 449.924 202.825C449.933 202.816 449.933 202.807 449.942 202.807L456.816 191.568L457.235 190.879L457.708 190.643L470.283 246.078Z" fill="#F2A921"/>
<path d="M502.918 162.91C516.908 162.91 528.249 151.585 528.249 137.615C528.249 123.645 516.908 112.32 502.918 112.32C488.928 112.32 477.587 123.645 477.587 137.615C477.587 151.585 488.928 162.91 502.918 162.91Z" fill="#FFB6B6"/>
<path d="M531.396 126.519C531.308 122.205 530.818 116.686 527.793 112.285C525.239 108.582 520.088 105.648 515.287 107.115C515.341 106.156 515.127 105.201 514.67 104.357C514.213 103.512 513.531 102.81 512.698 102.329C510.879 101.22 508.693 101.019 506.76 100.836C501.889 100.382 496.843 99.9104 491.911 100.845C486.375 101.893 481.845 104.74 479.492 108.661L479.44 108.783L478.959 111.106C478.895 111.417 478.764 111.711 478.575 111.967C478.386 112.224 478.144 112.436 477.866 112.59C477.587 112.747 477.277 112.839 476.958 112.862C476.639 112.885 476.319 112.837 476.02 112.721C475.694 112.599 475.341 112.564 474.997 112.62C474.653 112.675 474.329 112.819 474.058 113.038C473.787 113.257 473.578 113.542 473.451 113.867C473.324 114.191 473.285 114.543 473.336 114.887L473.467 115.813L472.076 115.551C471.727 115.483 471.366 115.51 471.031 115.628C470.696 115.747 470.399 115.952 470.169 116.224C469.94 116.495 469.788 116.823 469.728 117.173C469.668 117.523 469.703 117.882 469.829 118.214L470.214 119.271C469.926 119.275 469.643 119.336 469.38 119.452C469.117 119.567 468.88 119.734 468.683 119.943C468.402 120.248 468.226 120.633 468.178 121.044C468.131 121.456 468.216 121.871 468.421 122.231C469.979 124.888 472.188 127.105 474.84 128.676C476.032 129.393 477.318 129.943 478.662 130.309C478.941 130.387 479.23 130.457 479.527 130.518C490.265 132.829 501.334 133.161 512.191 131.497C511.552 133.635 511.306 135.872 511.465 138.098C511.815 140.884 513.45 143.181 515.637 143.949C516.132 144.117 516.641 144.239 517.158 144.316C517.654 144.396 518.142 144.516 518.619 144.674C519.322 144.931 519.945 145.37 520.424 145.944C520.904 146.519 521.222 147.21 521.348 147.948C521.474 148.685 521.403 149.442 521.142 150.143C520.881 150.844 520.439 151.464 519.861 151.94C519.861 151.94 522.152 153.835 522.44 153.739C523.567 153.242 524.509 152.405 525.134 151.346C529.498 145.076 531.605 136.727 531.396 126.519Z" fill="#2F2E41"/>
</g>
<defs>
<clipPath id="clip0_202_1699">
<rect width="677" height="585" fill="white"/>
</clipPath>
</defs>
</svg>
